{"accessors" : [{"bufferView" : 0, "byteOffset" : 0, "componentType" : 5123, "count" : 9636, "type" : "SCALAR", "max" : [8797], "min" : [0]}, {"bufferView" : 1, "byteOffset" : 0, "componentType" : 5126, "count" : 8798, "type" : "VEC3", "max" : [1.7214189767837524, 1.7214189767837524, 1.7214189767837524], "min" : [-1.7214189767837524, -1.814666986465454, -1.7214189767837524], "name" : "POSITION"}, {"bufferView" : 1, "byteOffset" : 12, "componentType" : 5126, "count" : 8798, "type" : "VEC3", "max" : [0.998673677444458, 1.0000044107437134, 0.998673677444458], "min" : [-0.998673677444458, -1.0000044107437134, -0.998673677444458], "name" : "NORMAL"}, {"bufferView" : 1, "byteOffset" : 24, "componentType" : 5126, "count" : 8798, "type" : "VEC4", "max" : [0.9993555545806885, 0.9998749494552612, 0.9994198679924011, 1], "min" : [-0.9993396401405334, -0.9831998944282532, -0.9994193911552429, 1], "name" : "TANGENT"}, {"bufferView" : 1, "byteOffset" : 40, "componentType" : 5126, "count" : 8798, "type" : "VEC2", "max" : [0.4999380111694336, -9.999999747378752E-05], "min" : [9.999999747378752E-05, -0.9998999834060669], "name" : "TEXCOORD_0"}], "asset" : {"generator" : "Aspose.3D 22.10", "version" : "2.0"}, "buffers" : [{"uri" : "data:application/octet-stream;base64,", "byteLength" : 481808}], "bufferViews" : [{"buffer" : 0, "byteOffset" : 0, "byteLength" : 19272, "target" : 34963}, {"buffer" : 0, "byteOffset" : 19276, "byteLength" : 462528, "byteStride" : 48, "target" : 34962}], "materials" : [{"name" : "DefaultMaterial", "pbrMetallicRoughness" : {"baseColorFactor" : [0.6, 0.6, 0.6, 1], "metallicFactor" : 0, "roughnessFactor" : 0}, "emissiveFactor" : [0, 0, 0], "alphaMode" : "OPAQUE", "doubleSided" : false}], "meshes" : [{"primitives" : [{"attributes" : {"POSITION" : 1, "NORMAL" : 2, "TANGENT" : 3, "TEXCOORD_0" : 4}, "indices" : 0, "material" : 0, "mode" : 4}], "name" : ""}], "nodes" : [{"matrix" : [65.058388, 0, 0, 0, 0, -1.1E-05, -65.058388, 0, 0, 65.058388, -1.1E-05, 0, -2.005959, 118.699715, 0.080967, 1], "mesh" : 0, "name" : "Cube"}], "scene" : 0, "scenes" : [{"nodes" : [0]}]}